<!DOCTYPE svg PUBLIC "-//W3C//DTD SVG 20010904//EN" "http://www.w3.org/TR/2001/REC-SVG-20010904/DTD/svg10.dtd">
<svg version="1.0" xmlns="http://www.w3.org/2000/svg" width="267px" height="255px" viewBox="0 0 2670 2550" preserveAspectRatio="xMidYMid meet">
<g id="layer1" fill="#0092dd" stroke="none">
 <path d="M443 1101 c-28 -75 -50 -136 -49 -137 7 -7 934 -427 942 -427 10 0 887 398 930 422 8 4 6 20 -5 53 l-16 48 -63 -40 c-34 -22 -67 -40 -71 -40 -5 0 -57 23 -116 50 -59 28 -110 50 -114 50 -3 0 -17 -32 -31 -71 -13 -39 -29 -73 -36 -76 -7 -3 -52 0 -101 6 l-88 11 -100 -100 -100 -100 -89 101 -88 101 -22 -21 c-12 -12 -26 -21 -32 -20 -5 0 -43 40 -84 89 -41 49 -77 89 -80 90 -3 0 -48 -52 -100 -115 l-94 -116 -27 28 c-15 15 -92 101 -172 189 l-145 162 -49 -137z"/>
 </g>
<g id="layer2" fill="#009041" stroke="none">
 <path d="M1268 2033 c-31 -5 -35 -15 -14 -32 12 -10 19 -8 35 8 26 26 34 27 28 4 -3 -10 -8 -35 -12 -55 -8 -52 -27 -48 -56 12 -19 39 -29 49 -49 50 l-24 0 21 -15 c15 -11 21 -25 20 -52 -1 -41 -10 -53 -43 -53 -16 0 -23 8 -28 31 -10 52 -7 69 12 70 9 0 13 2 7 5 -5 2 -44 -2 -85 -10 -41 -8 -62 -14 -47 -15 32 -1 28 -21 -4 -21 -18 0 -20 -4 -13 -45 4 -28 2 -45 -4 -45 -12 0 -26 86 -16 101 5 8 -3 10 -27 6 -19 -4 -53 -9 -76 -13 -24 -4 -40 -11 -37 -16 3 -5 -2 -21 -11 -35 -17 -25 -16 -26 11 -49 21 -17 24 -23 13 -24 -9 0 -22 7 -29 15 -15 18 -32 20 -28 3 2 -7 -2 -15 -7 -17 -6 -3 -14 19 -18 47 -6 39 -13 52 -25 52 -13 0 -37 -54 -99 -227 -46 -125 -81 -229 -79 -231 3 -2 51 17 107 42 56 25 108 46 115 46 6 0 84 -43 172 -95 88 -52 164 -95 170 -95 5 0 55 17 112 39 l102 38 199 -64 199 -64 163 61 c89 34 165 65 169 68 4 4 -32 113 -79 243 l-85 236 -67 12 c-36 6 -79 14 -96 16 -16 2 -115 20 -220 40 -183 33 -217 37 -277 28z m-158 -83 c0 -22 5 -40 10 -40 6 0 10 -4 10 -9 0 -12 -39 -21 -46 -10 -3 5 -1 9 4 9 11 0 3 58 -9 66 -16 10 -9 24 11 24 17 0 20 -7 20 -40z m-152 -2 c7 -7 12 -27 12 -45 0 -62 -81 -69 -92 -8 -10 49 47 86 80 53z m86 -274 c-5 -19 -2 -24 14 -24 12 0 23 9 27 20 6 18 25 29 25 14 0 -23 -24 -94 -32 -94 -6 0 -8 9 -5 20 4 16 0 20 -19 20 -15 0 -24 -6 -24 -15 0 -8 -4 -15 -10 -15 -12 0 -12 -2 1 60 6 27 15 48 20 44 5 -3 6 -16 3 -30z m106 -10 c0 -17 31 -19 48 -2 25 25 22 -1 -5 -45 -30 -50 -44 -54 -54 -16 -11 38 -10 91 1 84 6 -3 10 -13 10 -21z m120 -41 l1 -38 16 30 c21 41 23 42 33 25 13 -20 13 -100 0 -100 -5 0 -10 17 -11 38 l0 37 -16 -32 c-9 -18 -20 -33 -24 -33 -3 0 -10 15 -14 33 l-7 32 -11 -27 c-11 -28 -27 -38 -27 -18 0 19 40 90 50 90 6 0 10 -17 10 -37z m140 -3 c0 -5 -4 -10 -10 -12 -5 -1 -11 -20 -12 -40 -2 -29 -7 -38 -22 -38 -14 0 -16 4 -10 18 4 9 9 33 10 52 1 19 3 36 3 37 3 5 41 -11 41 -17z m40 -15 c0 -18 31 -20 48 -3 6 6 14 9 17 6 9 -8 -48 -98 -61 -98 -6 0 -14 17 -18 38 -8 53 -7 72 4 72 6 0 10 -7 10 -15z m105 -25 c-8 -24 -2 -25 31 -4 29 20 46 10 19 -10 -11 -8 -19 -26 -20 -42 0 -25 -4 -29 -30 -29 -29 0 -30 2 -28 40 3 49 9 65 23 65 7 0 9 -8 5 -20z m139 -13 c29 -21 16 -51 -22 -55 -41 -4 -42 -22 -1 -22 17 0 28 -4 24 -10 -9 -15 -51 -12 -65 5 -19 23 -4 45 31 45 20 0 29 4 26 13 -2 6 -16 12 -30 12 -27 -1 -33 5 -20 18 10 11 38 8 57 -6z m61 -27 c-8 -24 -2 -25 31 -4 34 23 43 9 11 -17 -26 -19 -26 -22 -12 -50 19 -37 8 -38 -22 -1 -18 21 -22 23 -23 10 0 -10 -5 -18 -11 -18 -7 0 -8 12 -4 33 11 54 16 67 26 67 6 0 7 -9 4 -20z m95 -10 c0 -5 10 -14 21 -21 17 -9 23 -8 30 2 4 7 11 11 14 7 9 -9 -38 -88 -52 -88 -7 0 -15 10 -17 23 -13 64 -15 87 -6 87 6 0 10 -4 10 -10z"/>
 <path d="M902 1908 c2 -25 8 -33 23 -33 16 0 20 7 20 30 0 24 -5 31 -23 33 -21 3 -23 0 -20 -30z"/>
 <path d="M1155 1620 c3 -5 8 -10 11 -10 2 0 4 5 4 10 0 6 -5 10 -11 10 -5 0 -7 -4 -4 -10z"/>
 <path d="M1455 1560 c3 -5 8 -10 11 -10 2 0 4 5 4 10 0 6 -5 10 -11 10 -5 0 -7 -4 -4 -10z"/>
 <path d="M1540 1525 c0 -8 7 -15 15 -15 8 0 15 7 15 15 0 8 -7 15 -15 15 -8 0 -15 -7 -15 -15z"/>
 <path d="M1860 1474 c0 -8 5 -12 10 -9 6 3 10 10 10 16 0 5 -4 9 -10 9 -5 0 -10 -7 -10 -16z"/>
 <path d="M1167 1984 c-13 -13 -7 -24 14 -24 11 0 19 5 17 12 -5 14 -22 21 -31 12z"/>
 <path d="M1270 1971 c0 -6 5 -13 10 -16 6 -3 10 1 10 9 0 9 -4 16 -10 16 -5 0 -10 -4 -10 -9z"/>
 <path d="M798 1925 c2 -14 8 -25 12 -25 4 0 12 11 18 25 11 23 10 25 -12 25 -19 0 -22 -4 -18 -25z"/>
 <path d="M1170 1930 c0 -5 7 -10 15 -10 8 0 15 5 15 10 0 6 -7 10 -15 10 -8 0 -15 -4 -15 -10z"/>
 </g>
<g id="layer3" fill="#080b0a" stroke="none">
 <path d="M955 2191 l-369 -67 -193 -529 c-105 -292 -194 -534 -195 -539 -2 -5 -18 -1 -35 8 -18 9 -36 16 -41 16 -9 0 -96 -180 -90 -185 2 -2 221 -103 488 -225 267 -122 503 -232 525 -243 l40 -20 -35 -16 c-19 -8 -36 -16 -38 -17 -6 -3 81 -184 88 -184 4 0 56 22 116 50 60 27 114 50 120 50 7 0 60 -22 119 -50 59 -27 111 -50 116 -50 8 0 89 164 89 181 0 4 -16 13 -36 19 -20 7 -32 16 -27 20 4 5 240 115 523 245 283 130 517 239 519 241 4 4 -67 163 -79 177 -4 5 -24 1 -45 -7 -21 -9 -39 -15 -40 -14 -1 2 -89 244 -196 538 l-194 535 -370 67 c-203 36 -374 66 -380 66 -5 0 -176 -30 -380 -67z m759 -15 c197 -36 359 -66 361 -68 1 -2 89 -241 194 -533 106 -291 196 -534 201 -538 4 -5 21 -2 38 7 17 9 34 16 37 16 3 0 22 -34 41 -77 27 -59 32 -78 22 -84 -7 -5 -246 -115 -530 -246 -285 -131 -518 -241 -518 -244 0 -3 18 -14 40 -24 22 -10 40 -19 40 -21 0 -2 -16 -37 -35 -80 -28 -62 -38 -75 -52 -69 -10 3 -63 27 -118 51 l-101 45 -108 -50 c-60 -28 -112 -51 -116 -51 -6 0 -80 144 -80 155 0 2 20 11 45 21 25 9 42 21 38 25 -4 4 -244 116 -532 249 -289 132 -526 242 -528 244 -4 3 66 156 71 156 2 0 20 -7 41 -16 20 -8 38 -14 40 -12 1 2 89 242 195 533 105 292 196 534 200 539 9 9 673 133 725 135 17 0 191 -28 389 -63z"/>
 <path d="M1231 2186 c-12 -29 -57 -37 -67 -11 -4 8 -10 15 -16 15 -5 0 5 -27 24 -60 18 -33 38 -60 44 -60 7 0 17 29 23 66 13 70 8 95 -8 50z m-11 -61 c0 -28 -15 -34 -24 -9 -10 25 -7 34 9 34 9 0 15 -9 15 -25z"/>
 <path d="M1320 2155 c0 -53 -1 -55 -27 -56 -22 -1 -20 -3 12 -10 55 -11 75 -11 75 1 0 6 -10 10 -22 10 -22 0 -23 4 -20 55 3 35 0 55 -7 55 -7 0 -11 -22 -11 -55z"/>
 <path d="M1437 2187 c-26 -18 -33 -79 -12 -100 24 -24 71 -22 89 5 44 63 -18 139 -77 95z m57 -10 c22 -16 18 -75 -6 -91 -42 -26 -77 46 -42 85 20 23 25 23 48 6z"/>
 <path d="M1048 2173 c-16 -2 -28 -8 -28 -12 0 -5 20 -25 45 -46 47 -38 50 -55 9 -55 -13 0 -24 -4 -24 -10 0 -5 14 -7 33 -3 60 11 61 17 12 62 -26 24 -45 44 -43 45 2 2 19 7 38 13 28 9 30 11 10 10 -14 0 -37 -2 -52 -4z"/>
 <path d="M1578 2155 c-4 -16 -10 -47 -14 -67 l-6 -38 42 0 42 0 -4 36 c-2 28 3 40 21 55 13 10 18 19 11 19 -6 0 -23 -9 -37 -20 -35 -27 -41 -25 -45 13 l-3 32 -7 -30z m47 -70 c0 -13 -8 -21 -22 -23 -19 -3 -23 1 -23 23 0 22 4 26 23 23 14 -2 22 -10 22 -23z"/>
 <path d="M956 2151 c-4 -5 -1 -11 6 -13 8 -3 13 -24 13 -56 0 -42 3 -52 17 -52 9 0 20 5 23 10 3 6 2 10 -4 10 -14 0 -30 82 -18 98 7 9 4 12 -11 12 -12 0 -23 -4 -26 -9z"/>
 <path d="M886 2095 c-18 -57 -36 -65 -36 -17 0 15 -5 34 -11 42 -8 11 -9 2 -4 -34 13 -94 32 -102 56 -23 9 30 18 46 21 37 3 -8 11 -31 17 -50 10 -33 10 -32 5 15 -11 102 -23 110 -48 30z"/>
 <path d="M1706 2128 c-19 -27 -21 -79 -4 -96 16 -16 73 -15 87 1 6 8 14 28 17 44 12 60 -67 99 -100 51z m65 2 c36 -20 16 -100 -26 -100 -7 0 -21 7 -30 16 -19 20 -13 62 12 82 20 15 20 15 44 2z"/>
 <path d="M782 2105 c-13 -28 -59 -35 -68 -10 -4 8 -10 15 -15 15 -6 0 5 -27 23 -60 47 -85 57 -81 73 33 8 52 4 59 -13 22z m-8 -57 c-9 -32 -14 -35 -24 -18 -16 24 -11 40 11 40 16 0 19 -4 13 -22z"/>
 <path d="M1847 2065 c-30 -62 -31 -65 -18 -65 5 0 17 20 26 45 21 54 35 50 35 -11 0 -24 4 -44 9 -44 5 0 18 21 29 47 22 51 25 48 35 -32 2 -16 5 0 6 38 1 80 -16 90 -44 25 -16 -39 -18 -41 -22 -18 -7 49 -14 70 -21 70 -4 0 -20 -25 -35 -55z"/>
 <path d="M1015 2007 c-154 -27 -283 -54 -286 -59 -21 -33 -360 -991 -353 -997 12 -12 948 -441 961 -441 8 0 965 438 969 443 1 1 -80 227 -180 502 l-182 500 -94 17 c-52 10 -101 21 -110 24 -8 4 -22 6 -31 5 -10 -1 -91 12 -182 29 -90 16 -179 30 -198 29 -19 -1 -160 -24 -314 -52z m530 -2 c105 -20 204 -38 220 -40 17 -2 60 -10 96 -16 l67 -12 85 -236 c47 -130 83 -239 79 -243 -4 -3 -80 -34 -169 -68 l-163 -61 -199 64 -199 64 -102 -38 c-57 -22 -107 -39 -112 -39 -6 0 -82 43 -170 95 -88 52 -166 95 -172 95 -7 0 -59 -21 -115 -46 -56 -25 -104 -44 -107 -42 -2 2 33 106 79 231 62 173 86 227 99 227 12 0 19 -13 25 -52 4 -28 12 -50 18 -47 5 2 9 10 7 17 -4 17 13 15 28 -3 7 -8 20 -15 29 -15 11 1 8 7 -13 24 -27 23 -28 24 -11 49 9 14 14 30 11 35 -3 5 13 12 37 16 23 4 57 9 76 13 24 4 32 2 27 -6 -10 -15 4 -101 16 -101 6 0 8 17 4 45 -7 41 -5 45 13 45 32 0 36 20 4 21 -15 1 6 7 47 15 41 8 80 12 85 10 6 -3 2 -5 -7 -5 -19 -1 -22 -18 -12 -70 5 -23 12 -31 28 -31 33 0 42 12 43 53 1 27 -5 41 -20 52 l-21 15 24 0 c20 -1 30 -11 49 -50 29 -60 48 -64 56 -12 4 20 9 45 12 55 6 23 -2 22 -28 -4 -16 -16 -23 -18 -35 -8 -21 17 -17 27 14 32 60 9 94 5 277 -28z m-347 -33 c2 -7 -6 -12 -17 -12 -21 0 -27 11 -14 24 9 9 26 2 31 -12z m92 -8 c0 -8 -4 -12 -10 -9 -5 3 -10 10 -10 16 0 5 5 9 10 9 6 0 10 -7 10 -16z m-462 -39 c-6 -14 -14 -25 -18 -25 -4 0 -10 11 -12 25 -4 21 -1 25 18 25 22 0 23 -2 12 -25z m372 5 c0 -5 -7 -10 -15 -10 -8 0 -15 5 -15 10 0 6 7 10 15 10 8 0 15 -4 15 -10z m-224 -479 l167 -99 66 25 c163 63 132 64 355 -7 l199 -63 161 61 c88 34 167 62 175 64 9 2 26 -31 51 -97 l38 -100 -46 -43 -47 -42 -130 6 -131 6 -27 -36 -28 -36 -74 37 -75 37 -86 -29 c-47 -17 -90 -33 -95 -36 -6 -3 -17 -50 -25 -104 -8 -55 -16 -100 -18 -102 -2 -2 -36 31 -75 73 l-72 77 -31 -23 c-25 -18 -32 -20 -42 -9 -7 8 -41 48 -76 89 -34 41 -66 78 -69 83 -4 4 -54 -13 -111 -38 l-103 -45 -163 86 c-90 47 -164 86 -164 87 0 10 61 162 67 168 8 8 223 107 235 108 4 1 82 -44 174 -98z m-266 -450 c63 -71 118 -130 122 -130 4 -1 50 51 102 114 l95 115 82 -95 82 -95 29 22 30 21 52 -59 c28 -32 68 -77 89 -99 l37 -40 93 99 94 99 98 -11 c55 -6 100 -10 102 -9 1 2 15 37 30 79 l28 77 118 -54 118 -54 64 39 c36 22 67 40 69 40 9 0 37 -93 30 -99 -5 -4 -217 -103 -472 -220 l-464 -213 -46 20 c-77 34 -894 411 -898 415 -3 3 26 89 92 267 6 16 4 18 224 -229z"/>
 <path d="M1070 1981 c0 -6 4 -12 9 -15 12 -8 20 -66 9 -66 -5 0 -7 -4 -4 -9 7 -11 46 -2 46 10 0 5 -4 9 -10 9 -5 0 -10 18 -10 40 0 33 -3 40 -20 40 -11 0 -20 -4 -20 -9z"/>
 <path d="M887 1940 c-32 -46 11 -103 59 -81 18 8 24 19 24 44 0 18 -5 38 -12 45 -18 18 -55 14 -71 -8z m58 -35 c0 -23 -4 -30 -20 -30 -15 0 -21 8 -23 33 -3 30 -1 33 20 30 18 -2 23 -9 23 -33z"/>
 <path d="M1021 1660 c-13 -62 -13 -60 -1 -60 6 0 10 7 10 15 0 9 9 15 24 15 19 0 23 -4 19 -20 -3 -11 -1 -20 5 -20 8 0 32 71 32 94 0 15 -19 4 -25 -14 -4 -11 -15 -20 -27 -20 -16 0 -19 5 -14 24 3 14 2 27 -3 30 -5 4 -14 -17 -20 -44z"/>
 <path d="M1131 1658 c1 -43 12 -81 24 -84 12 -4 68 86 60 94 -3 3 -11 0 -17 -6 -17 -17 -48 -15 -48 2 0 8 -4 18 -10 21 -6 4 -10 -7 -9 -27z m39 -38 c0 -5 -2 -10 -4 -10 -3 0 -8 5 -11 10 -3 6 -1 10 4 10 6 0 11 -4 11 -10z"/>
 <path d="M1230 1620 c-11 -21 -20 -44 -20 -50 0 -20 16 -10 27 18 l11 27 7 -32 c4 -18 11 -33 14 -33 4 0 15 15 24 33 l16 32 0 -37 c1 -21 6 -38 11 -38 13 0 13 80 0 100 -10 17 -12 16 -33 -25 l-16 -30 -1 38 c0 48 -14 47 -40 -3z"/>
 <path d="M1369 1637 c0 -1 -2 -18 -3 -37 -1 -19 -6 -43 -10 -52 -6 -14 -4 -18 10 -18 15 0 20 9 22 38 1 20 7 39 12 40 17 6 11 19 -10 25 -11 3 -20 4 -21 4z"/>
 <path d="M1430 1603 c0 -42 13 -93 24 -93 13 0 70 90 61 98 -3 3 -11 0 -17 -6 -17 -17 -48 -15 -48 3 0 8 -4 15 -10 15 -5 0 -10 -8 -10 -17z m40 -43 c0 -5 -2 -10 -4 -10 -3 0 -8 5 -11 10 -3 6 -1 10 4 10 6 0 11 -4 11 -10z"/>
 <path d="M1535 1588 c-3 -7 -6 -31 -8 -53 -2 -38 -1 -40 28 -40 26 0 30 4 30 29 1 16 9 34 20 42 27 20 10 30 -19 10 -33 -21 -39 -20 -31 4 7 22 -12 29 -20 8z m35 -63 c0 -8 -7 -15 -15 -15 -8 0 -15 7 -15 15 0 8 7 15 15 15 8 0 15 -7 15 -15z"/>
 <path d="M1637 1573 c-13 -13 -7 -19 20 -18 14 0 28 -6 30 -12 3 -9 -6 -13 -26 -13 -35 0 -50 -22 -31 -45 14 -17 56 -20 65 -5 4 6 -7 10 -24 10 -41 0 -40 18 1 22 23 2 34 9 37 22 5 31 -51 61 -72 39z"/>
 <path d="M1736 1543 c-14 -52 -17 -83 -7 -83 6 0 11 8 11 18 1 13 5 11 23 -10 30 -37 41 -36 22 1 -14 28 -14 31 12 50 32 26 23 40 -11 17 -33 -21 -39 -20 -31 4 3 11 2 20 -4 20 -5 0 -12 -8 -15 -17z"/>
 <path d="M1836 1508 c11 -67 15 -78 27 -78 14 0 61 79 52 88 -3 4 -10 0 -14 -7 -7 -10 -13 -11 -30 -2 -11 7 -21 16 -21 21 0 6 -4 10 -10 10 -5 0 -7 -14 -4 -32z m44 -27 c0 -6 -4 -13 -10 -16 -5 -3 -10 1 -10 9 0 9 5 16 10 16 6 0 10 -4 10 -9z"/>
 <path d="M575 1980 c-20 -39 -19 -56 5 -80 23 -23 82 -27 99 -7 17 21 26 77 12 77 -6 0 -11 -14 -11 -30 0 -23 -6 -33 -25 -42 -50 -23 -102 47 -60 82 15 13 16 12 27 -29 2 -8 8 -4 15 11 10 22 8 25 -18 35 -27 11 -30 9 -44 -17z"/>
 <path d="M1985 1916 c3 -16 13 -43 21 -60 13 -29 14 -29 9 -4 -4 24 0 28 45 44 28 10 50 22 50 26 0 11 -2 10 -43 -7 -49 -20 -62 -19 -76 8 -11 21 -11 20 -6 -7z"/>
 <path d="M538 1875 c-4 -4 2 -22 13 -40 22 -36 14 -51 -21 -40 -11 4 -20 3 -20 -2 0 -4 27 -18 59 -29 l59 -22 6 22 c3 11 6 31 6 44 0 19 -5 22 -35 22 -27 0 -37 6 -48 25 -7 14 -16 23 -19 20z m90 -78 c4 -19 -20 -32 -43 -23 -13 5 -14 10 -5 26 13 25 43 23 48 -3z"/>
 <path d="M2063 1823 c-24 -8 -43 -19 -43 -25 0 -5 6 -7 13 -4 81 33 121 31 115 -6 -2 -16 -15 -27 -45 -38 -51 -19 -69 -36 -28 -26 58 14 80 30 83 61 3 19 -2 33 -14 42 -22 16 -27 16 -81 -4z"/>
 <path d="M482 1718 c-16 -16 -15 -73 1 -87 29 -23 74 -24 96 -2 26 26 27 55 1 81 -22 22 -79 27 -98 8z m76 -14 c16 -11 22 -24 20 -42 -2 -22 -9 -28 -34 -30 -53 -5 -88 53 -46 77 24 14 34 13 60 -5z"/>
 <path d="M2122 1699 c-46 -18 -52 -23 -46 -42 15 -50 43 -60 71 -28 13 15 21 18 35 10 11 -6 24 -8 31 -6 7 2 -5 11 -25 20 -42 18 -49 36 -18 44 11 3 20 9 20 14 0 12 -7 11 -68 -12z m18 -39 c0 -24 -26 -38 -42 -22 -16 16 -2 42 22 42 13 0 20 -7 20 -20z"/>
 <path d="M2105 1570 c3 -6 14 -10 23 -10 36 0 44 -15 22 -43 -12 -15 -17 -27 -11 -27 5 0 19 13 30 29 12 16 32 32 46 35 14 4 25 11 25 17 0 7 -7 8 -17 3 -23 -9 -50 -10 -91 -1 -21 4 -31 3 -27 -3z"/>
 <path d="M406 1494 c-9 -8 -16 -19 -16 -24 0 -5 -3 -15 -6 -24 -4 -11 5 -20 32 -31 73 -30 80 -30 93 6 12 34 -1 64 -24 55 -6 -2 -17 5 -23 15 -15 23 -35 24 -56 3z m47 -16 c7 -23 -5 -48 -24 -48 -25 0 -35 26 -19 45 15 18 37 19 43 3z m45 -40 c-4 -29 -38 -38 -38 -10 0 22 8 32 27 32 9 0 13 -8 11 -22z"/>
 <path d="M2253 1482 c20 -21 23 -62 5 -62 -6 0 -23 14 -37 31 -27 32 -54 33 -65 2 -8 -19 14 -65 34 -71 12 -4 11 -1 -2 15 -10 11 -18 27 -18 36 0 30 22 30 47 -2 28 -35 48 -39 62 -12 14 25 -5 81 -27 81 -13 0 -13 -2 1 -18z"/>
 <path d="M352 1358 c-16 -16 -15 -53 1 -67 20 -16 97 -41 97 -31 0 4 -19 15 -42 22 -52 18 -69 41 -46 64 15 15 20 15 64 0 55 -19 54 -18 54 -8 0 10 -67 32 -97 32 -10 0 -24 -5 -31 -12z"/>
 <path d="M2191 1345 c0 -11 8 -38 19 -60 18 -37 19 -38 17 -11 -2 26 3 30 43 44 50 16 56 20 48 27 -3 3 -24 -2 -48 -10 -55 -20 -59 -19 -70 8 -8 20 -9 20 -9 2z"/>
 <path d="M309 1243 c-5 -16 -11 -33 -14 -40 -4 -13 112 -56 119 -44 3 4 -20 15 -50 25 -58 18 -57 18 -37 74 3 6 2 12 -1 12 -4 0 -11 -12 -17 -27z"/>
 <path d="M2243 1218 c6 -4 20 -8 30 -8 21 0 22 -9 1 -38 -9 -13 -14 -26 -11 -28 3 -3 15 9 27 26 12 17 36 36 53 43 29 12 26 13 -41 13 -39 0 -66 -4 -59 -8z"/>
 <path d="M285 1120 c22 -42 19 -53 -10 -46 -49 12 -24 -10 35 -32 33 -11 60 -17 60 -12 0 5 -11 12 -25 16 -36 9 -31 19 16 38 48 19 48 32 0 15 -35 -12 -55 -2 -66 32 -4 10 -11 19 -16 19 -5 0 -3 -13 6 -30z"/>
 <path d="M2326 1130 c-59 -23 -72 -35 -28 -27 36 7 38 3 17 -33 -8 -14 -14 -32 -14 -40 0 -8 9 2 20 23 11 20 21 37 23 37 2 0 20 -7 40 -15 20 -8 36 -11 36 -6 0 5 -16 15 -35 21 -39 13 -46 29 -15 37 11 3 20 9 20 14 0 12 -8 11 -64 -11z"/>
 <path d="M2420 1021 c0 -12 -79 -43 -91 -36 -5 4 -9 -1 -9 -9 0 -8 5 -18 10 -21 6 -3 10 -2 10 2 0 5 20 16 44 25 33 12 47 13 56 5 10 -9 12 -8 6 6 -3 10 -6 23 -6 28 0 5 -4 9 -10 9 -5 0 -10 -4 -10 -9z"/>
 <path d="M411 851 c-11 -27 -21 -54 -21 -59 0 -25 75 -30 84 -6 9 25 7 32 -15 53 -14 13 -19 26 -14 40 13 42 -13 20 -34 -28z m39 -26 c15 -18 6 -45 -14 -45 -20 0 -29 16 -21 40 8 24 18 25 35 5z"/>
 <path d="M585 770 c-23 -45 -28 -49 -45 -40 -11 6 -20 7 -20 2 0 -11 92 -53 100 -46 4 5 -15 20 -34 27 -5 1 3 26 18 55 14 29 22 52 16 52 -5 0 -21 -23 -35 -50z"/>
 <path d="M2038 805 c-4 -4 -2 -18 5 -32 9 -21 8 -27 -8 -39 -28 -20 -42 -17 -49 11 -4 14 -11 25 -16 25 -13 0 -13 0 16 -64 28 -61 39 -72 29 -28 -5 24 -2 30 22 41 15 7 29 9 30 4 7 -17 22 -37 26 -33 7 8 -48 122 -55 115z"/>
 <path d="M742 701 c-18 -44 -22 -48 -48 -45 -22 4 -17 -1 21 -19 53 -25 72 -27 39 -3 -18 14 -18 15 4 60 25 52 26 56 13 56 -4 0 -17 -22 -29 -49z"/>
 <path d="M1822 704 c-44 -30 -17 -114 36 -114 29 0 72 24 72 41 0 5 -13 0 -29 -12 -34 -25 -63 -19 -80 17 -13 30 -1 59 30 69 27 9 36 -1 21 -25 -17 -28 -15 -31 12 -19 21 10 23 15 14 35 -13 28 -43 31 -76 8z"/>
 <path d="M861 634 c-13 -30 -21 -58 -17 -61 3 -3 10 6 15 21 14 36 28 33 35 -9 4 -19 12 -37 18 -41 10 -7 7 21 -7 58 -4 9 10 22 37 36 42 22 29 25 -31 6 -22 -7 -23 -5 -17 19 11 47 -10 29 -33 -29z"/>
 <path d="M1711 639 c-1 -35 -41 -54 -64 -31 -9 9 -20 13 -24 9 -9 -9 77 -97 94 -97 15 0 17 78 3 120 l-8 25 -1 -26z m8 -86 c1 -20 -13 -15 -28 8 -11 18 -11 23 1 30 13 8 26 -10 27 -38z"/>
 </g>
<g id="layer4" fill="#fcfcfc" stroke="none">
 <path d="M1247 2222 c-71 -12 -87 -18 -85 -31 5 -25 55 -27 63 -2 8 26 39 29 31 4 -2 -10 -8 -38 -11 -63 -7 -43 -20 -70 -34 -70 -4 0 -22 27 -41 60 -23 40 -37 57 -44 50 -5 -5 -20 -10 -31 -10 -38 0 -35 -12 13 -55 26 -24 44 -46 41 -49 -4 -4 -29 -9 -58 -13 -58 -7 -72 11 -19 23 l33 7 -44 38 c-28 25 -41 44 -37 54 4 10 -1 15 -16 15 -16 0 -18 -3 -9 -14 8 -9 8 -16 2 -20 -14 -9 -1 -79 17 -93 18 -15 16 -18 -19 -26 -30 -7 -43 1 -29 17 11 14 -4 89 -19 94 -19 6 -12 22 11 22 12 0 19 2 16 6 -5 4 -257 -35 -266 -41 -1 -1 0 -10 4 -19 4 -10 17 -16 35 -16 22 0 29 5 29 20 0 12 7 20 16 20 12 0 15 -6 11 -22 -3 -13 -9 -44 -12 -70 -4 -28 -13 -49 -22 -53 -9 -3 -17 -4 -18 -3 -1 2 -18 31 -38 65 -24 42 -32 64 -24 67 7 3 -10 3 -38 -1 -27 -3 -51 -6 -52 -7 0 0 -89 -243 -196 -540 -108 -296 -198 -540 -200 -543 -3 -2 -19 3 -36 11 -16 9 -34 16 -39 16 -7 0 -72 -126 -72 -141 0 -2 241 -114 535 -249 294 -135 535 -248 535 -251 0 -3 -19 -14 -42 -24 -24 -11 -45 -20 -47 -21 -7 -6 63 -144 73 -143 6 0 58 22 116 48 75 34 111 46 125 41 11 -5 63 -28 116 -53 l96 -45 32 71 c17 40 31 75 31 78 0 4 -21 14 -46 24 -25 9 -42 21 -37 26 4 4 244 117 533 249 289 133 527 244 529 246 7 6 -54 136 -66 141 -6 2 -26 -3 -43 -12 -18 -9 -33 -15 -35 -13 -1 2 -91 245 -198 542 -108 296 -198 540 -199 541 -2 2 -24 6 -50 10 l-48 7 7 -77 c5 -64 4 -77 -8 -73 -8 3 -16 23 -19 49 l-5 44 -17 -42 c-23 -55 -48 -49 -48 11 l-1 41 -20 -37 c-11 -21 -26 -38 -34 -38 -11 0 -7 15 15 63 37 77 58 85 62 25 l3 -43 19 35 c10 19 23 38 27 41 5 3 -26 11 -69 18 -42 7 -88 15 -102 18 l-25 5 25 -14 c47 -25 39 -111 -13 -133 -32 -13 -32 -13 -7 -19 14 -3 61 -13 104 -21 44 -8 82 -19 86 -25 3 -5 28 -71 54 -145 34 -93 52 -132 60 -126 26 20 125 50 132 40 7 -12 -13 -29 -34 -29 -22 0 -3 -19 34 -35 53 -22 45 -46 -9 -26 -19 7 -28 5 -40 -10 -24 -28 -44 -24 -68 14 -25 38 -24 35 27 -107 33 -91 40 -104 44 -80 8 44 51 45 80 4 16 -22 26 -28 33 -21 8 8 5 19 -11 40 -27 37 -9 56 20 21 25 -31 24 -76 -4 -91 -19 -10 -25 -8 -49 21 -32 38 -60 33 -34 -7 23 -34 4 -54 -20 -21 l-17 23 7 -25 c4 -14 13 -38 21 -55 13 -30 13 -30 8 -2 -7 30 9 37 24 10 9 -15 15 -15 52 -4 23 7 48 15 56 18 8 3 14 -1 14 -10 0 -10 -19 -22 -51 -32 -46 -15 -50 -20 -45 -41 5 -17 2 -24 -9 -24 -8 0 -15 5 -15 12 0 6 -2 9 -5 6 -3 -3 5 -32 17 -65 l23 -61 18 24 c22 30 22 30 -13 43 -44 15 -39 34 8 25 44 -9 49 -9 85 1 21 6 27 4 27 -9 0 -9 -7 -16 -16 -16 -9 0 -35 -20 -59 -45 l-43 -44 18 -47 18 -48 16 32 c21 41 20 44 -9 36 -18 -4 -25 -2 -25 8 0 8 23 22 53 33 28 10 58 20 65 23 22 8 13 -25 -10 -35 -22 -11 -22 -12 15 -27 20 -9 37 -23 37 -31 0 -12 -5 -12 -42 1 -22 8 -42 13 -43 12 -1 -2 -10 -18 -19 -36 -9 -18 -21 -30 -26 -27 -13 8 -12 -6 0 -25 7 -11 10 -12 10 -2 0 8 7 11 18 8 22 -7 92 19 92 34 0 22 19 8 29 -21 10 -29 9 -31 -10 -26 -23 6 -89 -18 -89 -33 0 -17 -28 -11 -33 7 -3 13 -5 14 -6 3 -1 -9 -89 -55 -233 -120 -128 -58 -222 -106 -212 -108 21 -4 44 -29 44 -49 0 -16 -37 -36 -52 -27 -7 5 -5 11 7 20 17 13 17 14 1 20 -29 11 -52 -20 -40 -53 12 -36 48 -42 79 -13 19 18 23 19 28 6 7 -19 -37 -56 -67 -56 -56 0 -92 68 -62 115 16 24 16 24 -6 16 -13 -5 -122 -55 -242 -110 l-220 -102 -170 78 -171 78 -43 -19 c-45 -21 -44 -18 -26 -84 11 -39 -23 -15 -37 26 -12 35 -13 36 -22 14 -6 -12 -16 -22 -24 -22 -17 0 -11 24 23 91 l23 47 -50 21 -50 20 -24 -52 c-22 -50 -22 -52 -4 -61 10 -5 19 -13 19 -18 0 -14 -29 -9 -70 12 -44 22 -54 46 -17 36 21 -5 27 1 47 44 13 28 22 52 19 53 -8 8 -122 57 -124 55 -8 -10 -45 -89 -45 -97 0 -5 9 -13 21 -16 15 -5 18 -10 10 -18 -8 -8 -25 -4 -61 13 -54 25 -67 46 -24 37 23 -4 29 1 49 46 l24 50 -71 33 c-38 19 -71 34 -73 34 -3 0 -9 -9 -16 -21 -9 -17 -7 -23 10 -36 41 -28 16 -92 -31 -79 -53 14 -55 21 -25 81 15 30 27 59 27 64 0 5 -14 14 -30 21 -17 7 -33 16 -35 20 -4 6 350 997 360 1008 2 2 140 28 307 58 l304 54 190 -34 c104 -19 191 -33 192 -31 2 2 -6 13 -18 25 -30 30 -22 86 17 117 27 22 27 23 5 23 -12 0 -36 -12 -52 -26 -23 -21 -28 -33 -24 -51 4 -13 1 -30 -6 -38 -13 -16 -75 -21 -84 -6 -11 17 17 131 32 131 10 0 13 -8 10 -25 -6 -29 12 -34 33 -9 7 9 22 19 33 23 13 5 -6 12 -60 20 -43 7 -90 15 -104 17 -24 4 -24 4 -3 -5 30 -13 46 -47 38 -79 -19 -78 -102 -84 -128 -9 -9 24 18 87 37 87 9 0 16 4 16 9 0 5 -23 11 -50 15 -28 4 -56 8 -63 10 -6 2 -52 -3 -100 -12z m96 -62 c-6 -60 -6 -60 21 -60 14 0 26 -4 26 -10 0 -6 -27 -10 -60 -10 -47 0 -60 3 -60 15 0 8 8 15 19 15 19 0 31 34 31 86 0 15 6 24 15 24 12 0 14 -11 8 -60z m-404 -72 c7 -40 7 -66 1 -72 -6 -6 -11 -4 -14 5 -2 8 -8 27 -13 44 l-9 29 -12 -47 c-9 -35 -17 -47 -31 -47 -15 0 -21 12 -30 63 -14 79 -14 77 2 77 8 0 18 -19 23 -47 l10 -48 14 53 c10 37 19 52 31 52 13 0 19 -15 28 -62z m-296 -97 c11 -11 -11 -63 -24 -56 -6 4 -8 13 -5 21 7 19 -14 30 -25 13 -13 -21 -11 -36 7 -53 36 -36 94 -4 79 44 -4 14 -2 20 9 20 24 0 21 -61 -4 -88 -43 -46 -120 -17 -120 45 0 59 45 88 83 54z m1360 -71 l5 -20 51 20 c62 24 61 24 61 5 0 -8 -21 -22 -49 -32 -40 -14 -49 -21 -48 -39 3 -36 -15 -32 -28 6 -26 76 -27 80 -12 80 8 0 17 -9 20 -20z m-1443 -55 c9 -17 22 -25 40 -25 37 0 53 -22 45 -59 -4 -17 -11 -34 -16 -37 -12 -7 -129 35 -129 46 0 15 13 18 36 10 28 -11 32 4 9 34 -16 21 -20 56 -7 56 5 0 15 -11 22 -25z m1600 -46 c19 -34 8 -63 -30 -81 -19 -10 -45 -19 -57 -20 -38 -5 -26 16 18 33 75 28 64 81 -10 54 -51 -18 -61 -19 -61 -5 0 15 59 39 97 40 23 0 36 -6 43 -21z m-1595 -91 c45 -20 48 -94 4 -115 -72 -34 -143 53 -89 107 23 23 48 25 85 8z m1685 -158 c0 -5 -10 -12 -22 -16 -13 -4 -40 -25 -60 -48 -33 -35 -38 -38 -38 -20 0 12 7 27 15 34 22 18 18 28 -12 32 -14 2 -28 9 -31 17 -3 10 6 12 46 6 29 -4 58 -2 69 3 18 11 33 7 33 -8z m-1783 -74 c4 -8 17 -16 28 -18 16 -3 20 -11 19 -42 -2 -55 -12 -60 -82 -34 -67 24 -70 31 -36 86 16 25 58 30 71 8z m-23 -132 c26 -9 45 -21 44 -26 -4 -12 -14 -12 -66 3 -74 21 -88 -28 -15 -51 72 -23 73 -52 1 -31 -74 22 -94 54 -62 99 18 26 35 27 98 6z m-109 -111 c-19 -46 -17 -49 32 -64 29 -9 49 -22 51 -32 3 -14 -3 -14 -60 5 -35 11 -65 22 -67 24 -11 9 21 84 35 84 11 0 14 -5 9 -17z m-25 -133 c14 -34 16 -35 50 -15 32 18 51 19 44 1 -3 -8 -22 -21 -42 -29 l-37 -15 29 -11 c21 -8 26 -15 19 -22 -11 -11 -87 8 -122 30 -22 14 -4 33 20 20 29 -15 35 -4 15 25 -21 32 -22 74 -2 57 8 -6 19 -25 26 -41z m1765 -360 c26 -51 32 -80 16 -80 -5 0 -15 9 -22 21 -21 31 -53 15 -45 -22 4 -21 2 -29 -8 -29 -19 0 -67 112 -54 125 7 7 12 6 15 -1 2 -6 10 -19 17 -29 10 -14 16 -16 34 -6 18 10 20 16 12 31 -13 24 -13 40 0 40 5 0 21 -22 35 -50z m-341 -168 c9 -95 -4 -101 -72 -30 -38 39 -47 54 -35 56 8 2 19 -1 22 -7 12 -19 51 -1 51 24 0 13 6 25 13 28 6 2 13 4 13 3 1 0 5 -34 8 -74z"/>
 <path d="M584 1799 c-3 -6 0 -15 7 -20 22 -14 29 -11 29 11 0 21 -24 27 -36 9z"/>
 <path d="M497 1703 c-4 -3 -7 -17 -7 -30 0 -41 72 -56 86 -18 13 32 -55 73 -79 48z"/>
 <path d="M416 1469 c-15 -22 -15 -24 1 -30 22 -8 42 26 26 42 -8 8 -16 4 -27 -12z"/>
 <path d="M471 1441 c-8 -14 -7 -20 3 -24 8 -3 16 2 19 14 7 26 -10 34 -22 10z"/>
 <path d="M1686 581 c-3 -5 1 -14 9 -21 13 -10 15 -9 15 9 0 21 -14 28 -24 12z"/>
 <path d="M1108 2193 c6 -2 18 -2 25 0 6 3 1 5 -13 5 -14 0 -19 -2 -12 -5z"/>
 <path d="M1058 2183 c6 -2 18 -2 25 0 6 3 1 5 -13 5 -14 0 -19 -2 -12 -5z"/>
 <path d="M1439 2153 c-13 -35 0 -58 32 -58 17 0 26 8 33 27 19 53 -45 83 -65 31z"/>
 <path d="M1196 2125 c4 -8 10 -12 15 -9 14 8 10 24 -6 24 -9 0 -12 -6 -9 -15z"/>
 <path d="M1720 2110 c-19 -35 -9 -65 22 -68 22 -3 29 2 34 22 9 38 1 61 -23 64 -14 2 -26 -4 -33 -18z"/>
 <path d="M1587 2086 c-3 -8 0 -17 8 -19 15 -7 25 1 25 20 0 17 -26 17 -33 -1z"/>
 <path d="M740 2056 c0 -2 7 -9 15 -16 12 -10 15 -10 15 4 0 9 -7 16 -15 16 -8 0 -15 -2 -15 -4z"/>
 <path d="M2111 1671 c-8 -6 -11 -16 -7 -27 5 -12 10 -14 17 -7 16 16 7 45 -10 34z"/>
 <path d="M685 1494 l-121 -55 -27 -77 c-15 -42 -27 -80 -27 -84 0 -3 71 -43 158 -88 l157 -82 100 41 c55 23 105 41 110 41 6 -1 27 -22 48 -48 20 -26 55 -67 76 -91 l38 -44 30 21 30 21 74 -75 74 -75 15 102 15 102 98 33 97 34 72 -36 72 -36 30 33 29 33 131 -3 131 -2 43 38 43 38 -32 90 c-18 50 -35 94 -39 98 -4 5 -84 -21 -178 -57 l-170 -64 -199 64 -198 64 -112 -41 -112 -41 -148 87 c-81 49 -157 94 -168 101 -17 10 -37 4 -140 -42z"/>
 <path d="M417 810 c-4 -14 0 -20 12 -20 25 0 33 11 20 27 -16 18 -26 16 -32 -7z"/>
 <path d="M900 669 c-15 -27 -8 -32 24 -18 30 14 33 24 10 33 -22 8 -22 8 -34 -15z"/>
 </g>

</svg>